HIERARCHY
ROOT Hips
{
	OFFSET	0.00	0.00	0.00
	CHANNELS 6 Xposition Yposition Zposition Zrotation Xrotation Yrotation
	JOINT Spine
	{
		OFFSET	 0.00	0.01	 0.00
		CHANNELS 3 Zrotation Xrotation Yrotation
		JOINT Spine1
		{
			OFFSET	 0.00	 2.45913012437421	 0.00
			CHANNELS 3 Zrotation Xrotation Yrotation
            JOINT Neck
            {
                OFFSET	 0.00	 2.48462964506057	 0.00
                CHANNELS 3 Zrotation Xrotation Yrotation
                JOINT Head
                {
                    OFFSET	 0.00	 0.927524780924562	 0.00
                    CHANNELS 3 Zrotation Xrotation Yrotation
                    End Site 
                    {
                        OFFSET	 0.00	 1.14999962169752	 0.00
                    }
                }
            }
			JOINT LeftShoulder
			{
				OFFSET	 0.00	 2.48462964506057	 0.00
				CHANNELS 3 Zrotation Xrotation Yrotation
				JOINT LeftUpArm
				{
					OFFSET	 0.00	 1.24881979654096	 0.00
					CHANNELS 3 Zrotation Xrotation Yrotation
					JOINT LeftForeArm
					{
						OFFSET	 0.00	2.59758046908119	 0.00
						CHANNELS 3 Zrotation Xrotation Yrotation
						JOINT LeftHand
						{
							OFFSET	 0.00	2.45542024364365	 0.00
							CHANNELS 3 Zrotation Xrotation Yrotation
							JOINT LeftHandThumb 
							{
								OFFSET	 0.00	0.00	 0.00
								CHANNELS 3 Zrotation Xrotation Yrotation
								End Site
								{
									OFFSET	 0.00	0.00	1.00000003353624
								}
							}
							JOINT L_Wrist_End 
							{
								OFFSET	 0.00	0.99999967115358	 0.00
								CHANNELS 3 Zrotation Xrotation Yrotation
								End Site 
								{
									OFFSET	 0.00	 0.00	 0.00
								}
							}
						}
					}
				}
			}
			JOINT RightShoulder
			{
				OFFSET	 0.00	 2.48462964506057	 0.00
				CHANNELS 3 Zrotation Xrotation Yrotation
				JOINT RightUpArm
				{
					OFFSET	 0.00	 1.24881979654096	 0.00
					CHANNELS 3 Zrotation Xrotation Yrotation
					JOINT RightForeArm
					{
						OFFSET	 0.00	2.59758046908119	 0.00
						CHANNELS 3 Zrotation Xrotation Yrotation
						JOINT RightHand
						{
							OFFSET	 0.00	2.45542024364365	 0.00
							CHANNELS 3 Zrotation Xrotation Yrotation
							JOINT RightHandThumb 
							{
								OFFSET	 0.00	0.00	 0.00
								CHANNELS 3 Zrotation Xrotation Yrotation
								End Site
								{
									OFFSET	 0.00	0.00	1.00000003353624
								}
							}
							JOINT R_Wrist_End 
							{
								OFFSET	 0.00	0.99999967115358	 0.00
								CHANNELS 3 Zrotation Xrotation Yrotation
								End Site 
								{
									OFFSET	 0.00	 0.00	 0.00
								}
							}
						}
					}
				}
			}
		}
	}
	JOINT LeftUpLeg
	{
		OFFSET	 1.2719394002717	 0.00	 0.00
		CHANNELS 3 Zrotation Xrotation Yrotation
		JOINT LeftLowLeg
		{
			OFFSET	 0.00	-4.3429100912261	 0.00
			CHANNELS 3 Zrotation Xrotation Yrotation
			JOINT LeftFoot
			{
				OFFSET	 0.00	-4.48767017425826	 0.00
				CHANNELS 3 Zrotation Xrotation Yrotation
				JOINT LeftToeBase
                {
                    OFFSET	 0.00	0.00	 1.51507020887566
                    CHANNELS 3 Zrotation Xrotation Yrotation
                    End Site 
                    {
                        OFFSET	 0.00	0.00	 0.75000010571191
                    }
                }
			}
		}
	}
	JOINT RightUpLeg
	{
		OFFSET	 -1.2719393604653	 0.00	 0.00
		CHANNELS 3 Zrotation Xrotation Yrotation
		JOINT RightLowLeg
		{
			OFFSET	 0.00	-4.3429100912261	 0.00
			CHANNELS 3 Zrotation Xrotation Yrotation
			JOINT RightFoot
			{
				OFFSET	 0.00	-4.48767017425826	 0.00
				CHANNELS 3 Zrotation Xrotation Yrotation
				JOINT RightToeBase
                {
                    OFFSET	 0.00	0.00	 1.51507020887566
                    CHANNELS 3 Zrotation Xrotation Yrotation
                    End Site 
                    {
                        OFFSET	 0.00	0.00	 0.749999965609858
                    }
                }   
			}
		}
	}
}
MOTION 
Frames:	11 
Frame Time: 0.02 
  -1.090510025024414 6.315449829101563 9.319760131835938 23.4768 87.191 -37.6006 -0.415112 -7.80335 -1.83185 -5.80299 20.7295 6.11084 28.7636 47.2348 327.884 83.6203 -81.9422 -626.828 -114.878296 -0.796392 367.219 -41.6008 17.0978 23.9688 0.0 114.02 0.0 24.6131 -28.0458 7.61683 0.0 0.0 0.0 0.0 0.0 0.0 117.9377 -5.06874 -364.493 39.2013 19.7397 -372.939 0.0 120.738 0.0 -12.1347 -15.0435 -28.8442 0.0 0.0 0.0 0.0 0.0 0.0 -6.13033 2.72261 -359.913 0.0 15.29 0.0 -13.7947 -7.9002 13.6074 0.0 -19.04666 0.0 -6.09801 -8.27685 5.29071 0.0 30.5998 0.0 38.2468 -1.3066998 7.50376 0.0 -19.20856 0.0 
  -1.0936900329589845 6.326810302734375 9.320880126953124 28.4552 87.4892 -42.7088 -0.456598 -7.71469 -1.74433 -5.85104 20.4257 6.14873 28.737 46.9165 327.833 84.4606 -81.8737 -625.982 -114.8608 -0.813995 367.293 -41.6145 17.1562 23.8958 0.0 114.167 0.0 24.1295 -27.8166 6.47565 0.0 0.0 0.0 0.0 0.0 0.0 118.0222 -5.02622 -364.766 38.9971 19.8105 -373.65 0.0 120.41 0.0 -12.0893 -14.4206 -29.5116 0.0 0.0 0.0 0.0 0.0 0.0 -6.08102 2.34183 -359.812 0.0 15.1793 0.0 -13.8037 -7.8372993 13.6161 0.0 -19.04468 0.0 -6.04649 -8.73966 5.33198 0.0 30.5832 0.0 38.186 -1.2516003 7.49355 0.0 -19.09513 0.0 
  -1.0968800354003907 6.337109985351563 9.322230224609376 33.5691 87.7186 -47.9138 -0.56673 -7.66493 -1.73027 -5.77323 20.3043 6.22007 28.6281 46.4972 327.816 85.4384 -81.8102 -624.994 -114.8796 -0.786029 367.217 -41.6659 17.1782 23.9633 0.0 114.285 0.0 24.7168 -28.3534 6.71443 0.0 0.0 0.0 0.0 0.0 0.0 118.0345 -4.99936 -364.877 38.8816 19.8923 -374.142 0.0 120.158 0.0 -12.6453 -14.0608 -28.3253 0.0 0.0 0.0 0.0 0.0 0.0 -6.03206 2.02741 -359.712 0.0 15.0695 0.0 -13.8239 -7.7654 13.5974 0.0 -19.06673 0.0 -6.00742 -9.09958 5.34215 0.0 30.5002 0.0 38.1685 -1.1497002 7.49591 0.0 -19.15596 0.0 
  -1.100009994506836 6.346409912109375 9.323939819335937 39.0019 87.9028 -53.4194 -0.582455 -7.90971 -1.74713 -5.88584 20.818 6.25916 27.983 45.6236 328.309 84.3106 -81.5867 -626.133 -114.6669 -0.817361 366.904 -41.9164 17.2876 24.0427 0.0 114.304 0.0 25.8861 -28.3844 8.11003 0.0 0.0 0.0 0.0 0.0 0.0 117.9414 -4.89626 -364.606 39.1147 20.0838 -374.606 0.0 119.99 0.0 -13.6539 -13.4583 -27.4921 0.0 0.0 0.0 0.0 0.0 0.0 -5.98821 1.76065 -359.672 0.0 14.9481 0.0 -13.8434 -7.690901 13.6095 0.0 -19.04574 0.0 -5.96888 -9.39016 5.3693 0.0 30.379 0.0 38.1589 -1.0718002 7.47468 0.0 -19.13397 0.0 
  -1.1034100341796875 6.35468017578125 9.3256298828125 43.5632 88.0621 -58.0542 -0.590777 -7.74013 -1.75349 -5.88764 20.5805 6.20948 27.7333 45.4191 328.555 85.4475 -81.5305 -624.967 -114.7353 -0.865032 367.119 -41.7528 17.3144 23.6818 0.0 114.297 0.0 26.0728 -27.9885 8.38945 0.0 0.0 0.0 0.0 0.0 0.0 118.0842 -4.87899 -364.786 39.0305 20.2953 -374.477 0.0 119.866 0.0 -14.2696 -12.3339 -27.8108 0.0 0.0 0.0 0.0 0.0 0.0 -5.91519 1.5559 -359.639 0.0 14.8289 0.0 -13.8954 -7.646 13.6091 0.0 -19.04308 0.0 -5.89966 -9.59669 5.40763 0.0 30.2203 0.0 38.1839 -0.99160004 7.46085 0.0 -19.06344 0.0 
  -1.1063600158691407 6.362919921875 9.326580200195313 48.1615 88.1928 -62.6868 -0.737485 -7.50015 -1.82092 -5.59948 20.2629 6.25505 27.3981 45.2257 328.798 86.4064 -81.5636 -623.989 -114.9403 -0.813754 367.333 -41.5784 17.2548 23.379 0.0 114.255 0.0 25.5448 -27.409 8.52456 0.0 0.0 0.0 0.0 0.0 0.0 118.047195 -5.02549 -364.652 39.1537 20.3626 -374.198 0.0 119.668 0.0 -15.1037 -11.0913 -26.939 0.0 0.0 0.0 0.0 0.0 0.0 -5.84171 1.35218 -359.596 0.0 14.7544 0.0 -13.9089 -7.609501 13.5857 0.0 -19.0255 0.0 -5.82174 -9.77844 5.49499 0.0 30.088 0.0 38.2878 -0.95470047 7.42566 0.0 -19.00691 0.0 
  -1.1084600067138672 6.371719970703125 9.331060180664062 51.7062 88.2982 -66.2629 -0.170674 -8.17203 -1.73328 -6.77665 21.7728 5.90812 26.4085 43.8539 329.927 82.3863 -80.8376 -627.846 -113.992096 -1.22761 366.507 -42.1026 17.578 23.345 0.0 114.264 0.0 25.0726 -27.7003 8.70986 0.0 0.0 0.0 0.0 0.0 0.0 118.0719 -4.25438 -363.674 40.1099 20.3425 -374.176 0.0 119.453 0.0 -17.8516 -10.4811 -23.3678 0.0 0.0 0.0 0.0 0.0 0.0 -5.76366 1.17172 -359.563 0.0 14.7195 0.0 -13.9346 -7.4872 13.586 0.0 -19.10445 0.0 -5.75116 -9.88404 5.54315 0.0 29.8821 0.0 38.276 -0.8104 7.3093 0.0 -19.01611 0.0 
  -1.1090799713134765 6.37968017578125 9.332429809570312 56.7648 88.4108 -71.3134 -0.202499 -7.84108 -1.72642 -6.57115 21.2457 5.90045 26.3129 43.9024 329.981 83.7193 -80.9384 -626.608 -114.1358 -1.15695 366.863 -41.8385 17.5792 23.1214 0.0 114.207 0.0 24.7699 -27.8176 8.41483 0.0 0.0 0.0 0.0 0.0 0.0 117.9214 -4.27513 -363.781 40.4435 20.1118 -373.45 0.0 119.2 0.0 -22.5259 -10.2158 -18.5125 0.0 0.0 0.0 0.0 0.0 0.0 -5.69858 0.930323 -359.61 0.0 14.7531 0.0 -13.9474 -7.4837 13.6058 0.0 -19.07893 0.0 -5.72856 -9.98312 5.45009 0.0 29.6224 0.0 38.3829 -0.6483002 7.37286 0.0 -19.03076 0.0 
  -1.1083799743652343 6.386729736328125 9.333460083007813 65.7471 88.4912 -80.2553 -0.449306 -7.43961 -1.73659 -5.95239 20.3876 6.079 26.4452 44.1193 329.664 85.6013 -81.2223 -624.842 -114.5615 -0.908525 367.334 -41.4641 17.4907 23.0198 0.0 114.048 0.0 24.5002 -27.5166 7.45784 0.0 0.0 0.0 0.0 0.0 0.0 117.7439 -4.44032 -364.139 40.5215 19.7019 -371.83 0.0 118.991 0.0 -25.6443 -9.60979 -15.002 0.0 0.0 0.0 0.0 0.0 0.0 -5.66246 0.614304 -359.577 0.0 14.7724 0.0 -13.9242 -7.4211006 13.5456 0.0 -19.161991 0.0 -5.7568 -10.1777 5.27919 0.0 29.431 0.0 38.4802 -0.54730034 7.45287 0.0 -18.91532 0.0 
  -1.1058999633789062 6.393679809570313 9.335999755859374 77.5801 88.5374 -91.9509 -0.127934 -7.69234 -1.68986 -6.46744 20.6753 5.84303 26.0592 43.5835 330.096 84.12 -80.9592 -626.315 -114.2036 -1.12841 366.783 -41.5791 17.4356 23.2417 0.0 114.059 0.0 24.3911 -27.5665 7.28732 0.0 0.0 0.0 0.0 0.0 0.0 117.7538 -4.15071 -364.121 40.8275 19.5126 -370.327 0.0 118.774 0.0 -25.9082 -7.83534 -16.0458 0.0 0.0 0.0 0.0 0.0 0.0 -5.64903 0.182071 -359.836 0.0 14.904 0.0 -13.8418 -7.377199 13.6765 0.0 -19.23376 0.0 -5.82809 -10.3806 4.90196 0.0 29.2011 0.0 38.6264 -0.36270046 7.59376 0.0 -18.82661 0.0 
  -1.1016899871826171 6.3994598388671875 9.336699829101562 91.1869 88.494 -105.298 -0.211787 -7.51883 -1.76933 -6.12353 20.0186 5.7888 26.1257 43.7242 329.912 85.979 -81.1481 -624.522 -114.4814 -0.991718 367.048 -41.2936 17.3282 23.1894 0.0 114.102 0.0 24.425 -27.4925 7.43436 0.0 0.0 0.0 0.0 0.0 0.0 117.6659 -4.42628 -364.117 40.5897 19.1894 -369.438 0.0 118.711 0.0 -25.0759 -7.44734 -19.1649 0.0 0.0 0.0 0.0 0.0 0.0 -5.67023 -0.328397 -360.352 0.0 15.1092 0.0 -13.7752 -7.4022007 13.8588 0.0 -19.40715 0.0 -5.91828 -10.6592 4.56538 0.0 29.0934 0.0 38.8141 -0.28759956 7.70131 0.0 -18.84569 0.0 
